<svg width="200" height="200" viewBox="0 0 200 200" fill="none" xmlns="http://www.w3.org/2000/svg">
<rect width="200" height="200" rx="100" fill="#44ABB9"/>
<path d="M139.9 89.2143H137.05L117.674 65.2357C116.605 63.9142 115.25 62.8473 113.709 62.1142C112.168 61.381 110.481 61.0002 108.771 61H70.6682C66.0066 61 61.8153 63.8091 60.084 68.0941L51.55 89.6128C46.6409 90.8719 43 95.2469 43 100.5V120.25C43 121.809 44.2754 123.071 45.85 123.071H54.4C54.4 132.421 62.0558 140 71.5 140C80.9442 140 88.6 132.421 88.6 123.071H111.4C111.4 132.421 119.056 140 128.5 140C137.944 140 145.6 132.421 145.6 123.071H154.15C155.725 123.071 157 121.809 157 120.25V106.143C157 96.7933 149.344 89.2143 139.9 89.2143ZM71.5 131.536C66.785 131.536 62.95 127.739 62.95 123.071C62.95 118.404 66.785 114.607 71.5 114.607C76.215 114.607 80.05 118.404 80.05 123.071C80.05 127.739 76.215 131.536 71.5 131.536ZM84.325 89.2143H63.8282L70.6682 72.2857H84.325V89.2143ZM92.875 89.2143V72.2857H108.771L122.451 89.2143H92.875ZM128.5 131.536C123.785 131.536 119.95 127.739 119.95 123.071C119.95 118.404 123.785 114.607 128.5 114.607C133.215 114.607 137.05 118.404 137.05 123.071C137.05 127.739 133.215 131.536 128.5 131.536Z" fill="black" fill-opacity="0.7"/>
</svg>
