<svg width="200" height="200" viewBox="0 0 200 200" fill="none" xmlns="http://www.w3.org/2000/svg">
<rect width="200" height="200" rx="100" fill="#44ABB9"/>
<path d="M121.061 52.0354H78.9399C73.3446 52.0354 70.5493 52.0354 68.2981 53.4261C66.0516 54.8121 64.8005 57.3144 62.2982 62.3191L55.7726 78.8259C54.261 82.6399 52.9447 87.1329 55.4843 90.3561C56.6811 91.8752 58.3217 92.9836 60.1778 93.5269C62.034 94.0702 64.0133 94.0215 65.8404 93.3876C67.6675 92.7536 69.2517 91.566 70.3724 89.9898C71.4931 88.4136 72.0947 86.5273 72.0935 84.5933C72.0935 87.0604 73.0735 89.4265 74.818 91.171C76.5625 92.9155 78.9286 93.8956 81.3957 93.8956C83.8628 93.8956 86.2289 92.9155 87.9734 91.171C89.7179 89.4265 90.698 87.0604 90.698 84.5933C90.698 87.0604 91.678 89.4265 93.4226 91.171C95.1671 92.9155 97.5331 93.8956 100 93.8956C102.467 93.8956 104.833 92.9155 106.578 91.171C108.322 89.4265 109.303 87.0604 109.303 84.5933C109.303 87.0604 110.283 89.4265 112.027 91.171C113.772 92.9155 116.138 93.8956 118.605 93.8956C121.072 93.8956 123.438 92.9155 125.182 91.171C126.927 89.4265 127.907 87.0604 127.907 84.5933C127.907 86.5269 128.509 88.4126 129.63 89.988C130.751 91.5634 132.335 92.7503 134.162 93.3837C135.989 94.0171 137.968 94.0654 139.824 93.5219C141.679 92.9785 143.32 91.8703 144.516 90.3514C147.056 87.1282 145.735 82.6352 144.228 78.8213L137.698 62.3191C135.195 57.3144 133.949 54.8121 131.698 53.4261C129.451 52.0354 126.651 52.0354 121.061 52.0354Z" fill="black" fill-opacity="0.7"/>
<path fill-rule="evenodd" clip-rule="evenodd" d="M137.209 141.57H146.512C147.437 141.57 148.324 141.937 148.978 142.591C149.632 143.246 150 144.133 150 145.058C150 145.983 149.632 146.871 148.978 147.525C148.324 148.179 147.437 148.546 146.512 148.546H53.489C52.5638 148.546 51.6765 148.179 51.0224 147.525C50.3682 146.871 50.0006 145.983 50.0006 145.058C50.0006 144.133 50.3682 143.246 51.0224 142.591C51.6765 141.937 52.5638 141.57 53.489 141.57H62.7913V100.872C66.2517 100.872 69.4563 99.7933 72.0935 97.9561C74.8214 99.8599 78.0692 100.878 81.3958 100.872C84.8562 100.872 88.0609 99.7933 90.6981 97.9561C93.426 99.8599 96.6737 100.878 100 100.872C103.461 100.872 106.665 99.7933 109.303 97.9561C112.031 99.8599 115.278 100.878 118.605 100.872C122.065 100.872 125.27 99.7933 127.907 97.9561C130.635 99.8599 133.883 100.878 137.209 100.872V141.57ZM88.3725 141.57H111.628V128.779C111.628 124.43 111.628 122.258 110.693 120.64C110.082 119.577 109.201 118.695 108.14 118.082C106.521 117.151 104.349 117.151 100 117.151C95.6515 117.151 93.4794 117.151 91.8608 118.082C90.7997 118.695 89.919 119.577 89.3074 120.64C88.3725 122.258 88.3725 124.43 88.3725 128.779V141.57Z" fill="black" fill-opacity="0.7"/>
</svg>
