<svg width="20" height="20" viewBox="0 0 20 20" fill="none" xmlns="http://www.w3.org/2000/svg">
<path fill-rule="evenodd" clip-rule="evenodd" d="M10.0432 0.550018C10.6231 0.550018 11.0932 1.02012 11.0932 1.60002L11.0932 3.71079C11.0932 4.29069 10.6231 4.76079 10.0432 4.76079C9.46327 4.76079 8.99316 4.29069 8.99316 3.71079L8.99316 1.60002C8.99316 1.02012 9.46327 0.550018 10.0432 0.550018Z" fill="#808080"/>
<path fill-rule="evenodd" clip-rule="evenodd" d="M15.3254 10.0431C15.3254 9.46317 15.7955 8.99307 16.3754 8.99307H18.4862C19.0661 8.99307 19.5362 9.46317 19.5362 10.0431C19.5362 10.623 19.0661 11.0931 18.4862 11.0931H16.3754C15.7955 11.0931 15.3254 10.623 15.3254 10.0431Z" fill="#808080"/>
<path fill-rule="evenodd" clip-rule="evenodd" d="M10.0432 15.3254C10.6231 15.3254 11.0932 15.7955 11.0932 16.3754L11.0932 18.4861C11.0932 19.066 10.6231 19.5361 10.0432 19.5361C9.46327 19.5361 8.99316 19.066 8.99316 18.4861L8.99316 16.3754C8.99316 15.7955 9.46327 15.3254 10.0432 15.3254Z" fill="#808080"/>
<path fill-rule="evenodd" clip-rule="evenodd" d="M0.550049 10.0431C0.550049 9.46317 1.02015 8.99307 1.60005 8.99307L3.71082 8.99307C4.29072 8.99307 4.76082 9.46317 4.76082 10.0431C4.76082 10.623 4.29072 11.0931 3.71082 11.0931L1.60005 11.0931C1.02015 11.0931 0.550049 10.623 0.550049 10.0431Z" fill="#808080"/>
<circle cx="10" cy="10" r="4" fill="#808080"/>
<path fill-rule="evenodd" clip-rule="evenodd" d="M10.0432 4.7608C7.12586 4.7608 4.76089 7.12577 4.76089 10.0431C4.76089 12.9604 7.12586 15.3254 10.0432 15.3254C12.9605 15.3254 15.3255 12.9604 15.3255 10.0431C15.3255 7.12577 12.9605 4.7608 10.0432 4.7608ZM2.66089 10.0431C2.66089 5.96597 5.96606 2.6608 10.0432 2.6608C14.1203 2.6608 17.4255 5.96597 17.4255 10.0431C17.4255 14.1202 14.1203 17.4254 10.0432 17.4254C5.96606 17.4254 2.66089 14.1202 2.66089 10.0431Z" fill="#808080"/>
</svg>
